# xmcd CD database file
#
# Track frame offsets:
#	150
#	14723
#	36708
#	53473
#	71123
#	84070
#	94685
#	111040
#	128380
#	144130
#	160990
#	184273
#	198770
#
# Disc length: 2807 seconds
#
# Revision: 2
# Processed by: cddbd v1.5.2PL0 Copyright (c) Steve Scherf et al.
# Submitted via: CDex 1.70beta2
#
DISCID=a40af50d
DTITLE=Azuma - The Wanderer
DYEAR=1988
DGENRE=New Age
TTITLE0=The Gate
TTITLE1=The Man Who's Watching the Air
TTITLE2=Ancient Bells
TTITLE3=Angel in the Distance
TTITLE4=Inside the House
TTITLE5=Flying Angels
TTITLE6=Two Gallantly Men
TTITLE7=The Wanderer
TTITLE8=Fairy Doll
TTITLE9=Richly Covered Art Panel
TTITLE10=Brave Man
TTITLE11=The Temple Landscape
TTITLE12=Room on the Hill
EXTD=YEAR: 1988
EXTT0=
EXTT1=
EXTT2=
EXTT3=
EXTT4=
EXTT5=
EXTT6=
EXTT7=
EXTT8=
EXTT9=
EXTT10=
EXTT11=
EXTT12=
PLAYORDER=
